<svg xmlns="http://www.w3.org/2000/svg" width="120" height="36" fill="none" aria-label="cogoport" viewBox="0 0 862 282"><path fill="#EC3926" d="M684.628 147.038h-19.812V96.475c0-27.65 22.482-50.133 50.133-50.133 10.078 0 19.726 2.93 27.995 8.528l-11.112 16.453a30.292 30.292 0 0 0-16.969-5.169c-16.711 0-30.321 13.61-30.321 30.321v50.563h.086Zm-617.957-.517c-27.65 0-50.132-22.482-50.132-50.132S39.02 46.256 66.67 46.256c18.261 0 35.059 9.906 43.845 25.928l-17.314 9.561c-5.34-9.647-15.505-15.677-26.53-15.677-16.712 0-30.322 13.61-30.322 30.32 0 16.712 13.61 30.322 30.321 30.322 10.767 0 20.501-5.513 26.014-14.816l17.055 10.164c-9.044 15.074-25.497 24.463-43.069 24.463Zm98.543 0c-27.651 0-50.133-22.482-50.133-50.132s22.482-50.133 50.133-50.133c27.65 0 50.132 22.483 50.132 50.133 0 27.65-22.482 50.132-50.132 50.132Zm0-80.453c-16.711 0-30.321 13.61-30.321 30.32 0 16.712 13.61 30.322 30.321 30.322 16.71 0 30.32-13.61 30.32-30.321 0-16.711-13.61-30.32-30.32-30.32Zm218.963 80.453c-27.65 0-50.132-22.482-50.132-50.132s22.482-50.133 50.132-50.133c27.651 0 50.133 22.483 50.133 50.133 0 27.65-22.482 50.132-50.133 50.132Zm0-80.453c-16.71 0-30.32 13.61-30.32 30.32 0 16.712 13.61 30.322 30.32 30.322 16.711 0 30.321-13.61 30.321-30.321 0-16.711-13.61-30.32-30.321-30.32Zm218.275 80.453c-27.65 0-50.132-22.482-50.132-50.132s22.482-50.133 50.132-50.133c27.651 0 50.133 22.483 50.133 50.133-.086 27.65-22.569 50.132-50.133 50.132Zm0-80.453c-16.711 0-30.321 13.61-30.321 30.32 0 16.712 13.61 30.322 30.321 30.322 16.711 0 30.321-13.61 30.321-30.321 0-16.711-13.61-30.32-30.321-30.32Zm-109.31-19.812c-27.65 0-50.132 22.483-50.132 50.133v73.821h19.812v-33.939c8.441 6.46 18.95 10.25 30.32 10.25 27.651 0 50.133-22.482 50.133-50.132s-22.482-50.133-50.133-50.133Zm0 80.454c-16.71 0-30.32-13.61-30.32-30.321 0-16.711 13.61-30.32 30.32-30.32 16.711 0 30.321 13.609 30.321 30.32s-13.61 30.321-30.321 30.321Zm317.937-72.96h-38.676V29.287h-19.812v117.751h19.812V73.562h38.676V53.75Zm-482.375-5.943c-4.22-4.221-10.853-2.326-14.557 1.378-1.981 1.981-3.962 5.944-5.685 9.992-9.562-8.614-22.31-13.61-36.178-13.007-27.651 1.292-49.099 24.894-47.807 52.63 1.292 27.651 24.894 49.1 52.63 47.808 27.651-1.293 49.099-24.894 47.807-52.631a49.988 49.988 0 0 0-8.441-25.583c4.393-1.809 8.7-3.876 10.853-6.03 3.618-3.704 5.599-10.336 1.378-14.557ZM276.16 126.71c-16.711.775-31.01-12.146-31.785-28.943-.775-16.71 12.145-31.01 28.942-31.785 16.711-.775 31.01 12.145 31.785 28.942.776 16.711-12.231 31.01-28.942 31.786Zm44.447 22.482c-1.981-2.412-5.082-1.12-7.149.517-2.757 2.153-5.513 4.22-8.442 6.029-5.857 3.618-12.318 6.461-19.209 7.667-6.546 1.119-15.677 1.119-22.223 0-6.891-1.206-13.352-3.963-19.209-7.667-2.929-1.809-5.685-3.876-8.442-6.029-2.067-1.637-5.168-2.843-7.149-.517-3.79 4.565-1.378 11.715 1.378 16.108 3.618 5.685 9.906 9.475 15.763 12.49.086.086.259.086.345.172 8.7 4.393 17.572 6.03 28.426 6.03 10.853 0 19.725-1.637 28.425-6.03.086-.086.259-.086.345-.172 5.857-3.015 12.145-6.805 15.763-12.49 2.843-4.393 5.168-11.543 1.378-16.108ZM821.158 20.07s4.823-.086 7.235 0c2.929.086 5.341 2.67 5.168 5.6-.086 2.239-1.292 3.962-3.531 4.91 1.033 2.411 3.187 7.32 3.187 7.32h-3.446l-2.842-6.89h-2.584v6.977h-3.101V20.07h-.086Zm3.101 7.839h4.134c1.206-.086 2.068-1.12 2.154-2.24 0-1.378-1.034-2.412-2.412-2.498h-3.79l-.086 4.738Z"/><path fill="#EC3926" d="M842.089 29.2c0 8.529-6.891 15.42-15.419 15.42-8.527 0-15.418-6.891-15.418-15.42 0-8.527 6.891-15.418 15.418-15.418 8.528 0 15.419 6.805 15.419 15.419ZM826.67 16.97c-6.718 0-12.231 5.426-12.231 12.23 0 6.806 5.427 12.146 12.231 12.146 6.719 0 12.232-5.426 12.232-12.231s-5.513-12.146-12.232-12.146Z"/><path fill="#000" d="M69.083 235.244v20.587c-4.049 3.187-11.973 6.03-18.692 6.03-12.92 0-23.343-8.356-23.343-22.482 0-14.213 10.336-22.655 23.343-22.655 7.063 0 12.662 2.412 17.055 5.944l-4.22 6.891c-3.446-2.843-7.494-4.479-12.663-4.479-8.01 0-14.213 5.168-14.213 14.212 0 8.959 6.202 14.127 14.558 14.127 3.445 0 6.719-.861 9.13-2.326v-8.097H48.496v-7.838h20.587v.086Zm17.831-19.898v35.145c0 2.325.861 3.703 2.756 3.703 1.292 0 2.412-.43 3.618-1.033l.43 7.149c-1.55.603-4.479 1.465-7.58 1.465-4.996 0-8.269-2.412-8.269-9.131v-37.298h9.045Zm29.287 11.198c10.595 0 18.175 7.58 18.175 17.831 0 10.164-7.58 17.658-18.175 17.658-10.423 0-18.09-7.58-18.09-17.658 0-10.251 7.581-17.831 18.09-17.831Zm0 27.22c5.685 0 9.475-4.135 9.475-9.389 0-5.427-3.79-9.648-9.475-9.648-5.513 0-9.389 4.221-9.389 9.648 0 5.34 3.79 9.389 9.389 9.389Zm45.567 8.011c-4.565 0-7.839-1.379-10.164-3.704v3.015h-9.045v-45.74h9.045v14.902c2.325-2.067 5.771-3.446 10.164-3.446 9.475 0 15.849 7.236 15.849 17.4 0 10.251-6.374 17.573-15.849 17.573Zm-2.584-27.048c-3.015 0-5.858 1.378-7.58 3.187v12.921c1.55 1.551 4.479 3.101 7.58 3.101 5.513 0 9.13-3.876 9.13-9.647.087-5.772-3.531-9.562-9.13-9.562Zm59.521 16.022c0 1.895.517 3.445 2.326 3.445 1.292 0 2.326-.43 3.446-1.033l.344 7.149c-1.636.776-4.479 1.465-7.322 1.465-3.79 0-6.201-1.551-7.149-4.91a14.088 14.088 0 0 1-10.681 4.824c-9.389 0-15.763-7.236-15.763-17.314 0-10.251 6.374-17.573 15.763-17.573 4.393 0 7.838 1.206 10.078 3.446v-2.843h9.045v23.344h-.087Zm-8.958-13.007c-1.55-1.637-4.479-3.015-7.58-3.015-5.599 0-9.131 3.876-9.131 9.648 0 5.685 3.618 9.561 9.131 9.561 2.929 0 5.771-1.378 7.58-3.015v-13.179Zm30.924-22.396v35.145c0 2.325.861 3.703 2.756 3.703 1.292 0 2.412-.43 3.618-1.033l.431 7.149c-1.551.603-4.48 1.465-7.58 1.465-4.997 0-8.27-2.412-8.27-9.131v-37.298h9.045Zm49.702 11.026v34.8h-9.045v-34.8h-14.471v-9.045h37.384v9.045h-13.868Zm21.104 11.542c0-1.981-.431-3.445-2.326-3.445-1.378 0-2.929.603-3.446.947l-.344-7.063c.43-.431 3.79-1.464 7.321-1.464 3.877 0 6.375 1.55 7.322 5.082 1.637-3.187 4.049-5.082 8.442-5.082 3.187 0 5.599 1.119 6.029 1.895l-1.292 8.097c-.516-.689-3.101-1.723-6.202-1.723-4.306 0-6.029 3.704-6.546 7.666v18.348h-9.045v-23.258h.087Zm62.019 12.835c0 1.895.517 3.445 2.326 3.445 1.292 0 2.326-.43 3.445-1.033l.345 7.149c-1.637.776-4.479 1.465-7.322 1.465-3.79 0-6.202-1.551-7.149-4.91a14.088 14.088 0 0 1-10.681 4.824c-9.389 0-15.764-7.236-15.764-17.314 0-10.251 6.375-17.573 15.764-17.573 4.393 0 7.838 1.206 10.078 3.446v-2.843h9.044v23.344h-.086Zm-9.044-13.007c-1.551-1.637-4.48-3.015-7.58-3.015-5.599 0-9.131 3.876-9.131 9.648 0 5.685 3.618 9.561 9.131 9.561 2.928 0 5.771-1.378 7.58-3.015v-13.179Zm54.956-22.396v35.403c0 1.981.431 3.445 2.326 3.445 1.033 0 2.153-.43 3.359-1.033l.431 7.149c-1.637.776-4.566 1.465-7.408 1.465-3.532 0-6.03-1.292-7.063-4.307-2.154 2.67-5.772 4.307-10.768 4.307-9.389 0-15.763-7.322-15.763-17.573 0-10.164 6.46-17.4 15.763-17.4 4.307 0 7.753 1.379 10.165 3.446v-14.902h8.958Zm-16.539 38.59c3.015 0 6.03-1.464 7.581-3.015v-13.093c-1.723-1.723-4.566-3.101-7.581-3.101-5.512 0-9.216 3.79-9.216 9.562 0 5.771 3.617 9.647 9.216 9.647Zm60.039 3.532c-3.446 2.842-8.442 4.565-14.213 4.565-12.662 0-18.347-7.752-18.347-17.658 0-10.078 6.977-17.831 17.83-17.831 10.251 0 15.074 6.288 15.074 14.041 0 2.067-.344 5.254-.689 6.546H439.65c.862 4.738 3.877 7.322 9.39 7.322 4.22 0 8.183-1.723 10.508-3.446l3.36 6.461Zm-8.269-18.434c0-2.67-2.068-4.996-6.633-4.996-4.824 0-7.408 2.929-8.097 6.202h14.643c.087-.345.087-.861.087-1.206Zm34.369-21.707h20.931c8.614 0 15.936 4.996 15.936 16.022 0 9.906-7.322 15.763-15.936 15.763h-11.887v12.146h-9.044v-43.931Zm9.044 7.839v16.022h10.509c4.479 0 8.011-3.015 8.011-7.925 0-5.255-3.532-8.097-8.011-8.097h-10.509Zm43.931-9.82v35.145c0 2.325.861 3.703 2.756 3.703 1.293 0 2.412-.43 3.618-1.033l.431 7.149c-1.551.603-4.479 1.465-7.58 1.465-4.996 0-8.27-2.412-8.27-9.131v-37.298h9.045Zm46.256 35.403c0 1.895.517 3.445 2.326 3.445 1.292 0 2.326-.43 3.446-1.033l.344 7.149c-1.637.776-4.479 1.465-7.322 1.465-3.79 0-6.202-1.551-7.149-4.91a14.088 14.088 0 0 1-10.681 4.824c-9.389 0-15.764-7.236-15.764-17.314 0-10.251 6.375-17.573 15.764-17.573 4.393 0 7.838 1.206 10.078 3.446v-2.843h9.044v23.344h-.086Zm-8.958-13.007c-1.551-1.637-4.479-3.015-7.58-3.015-5.599 0-9.131 3.876-9.131 9.648 0 5.685 3.618 9.561 9.131 9.561 2.928 0 5.771-1.378 7.58-3.015v-13.179Zm33.336-18.864v8.614h12.317v7.063h-12.317v13.696c0 4.048 1.636 5.771 4.565 5.771 2.412 0 5.168-1.206 6.805-2.412l2.842 6.978c-3.187 1.981-7.494 3.359-12.49 3.359-6.632 0-10.767-4.049-10.767-11.801v-15.505h-6.03v-7.236h6.03l1.12-8.613h7.925v.086Zm18.175 10.164h6.202v-2.326c0-6.546 3.445-11.973 11.628-11.973 3.532 0 6.891 1.034 8.7 1.895l-1.981 7.839c-1.378-.862-3.532-1.809-5.685-1.809-2.584 0-3.618 1.55-3.618 4.134v2.24h10.164v7.063h-10.164v25.067h-9.044v-25.067h-6.202v-7.063Zm47.893-2.498c10.595 0 18.175 7.58 18.175 17.831 0 10.164-7.58 17.658-18.175 17.658-10.423 0-18.089-7.58-18.089-17.658 0-10.251 7.666-17.831 18.089-17.831Zm0 27.22c5.685 0 9.475-4.135 9.475-9.389 0-5.427-3.79-9.648-9.475-9.648-5.513 0-9.39 4.221-9.39 9.648 0 5.34 3.791 9.389 9.39 9.389Zm29.028-15.85c0-1.981-.43-3.445-2.325-3.445-1.379 0-2.929.603-3.446.947l-.345-7.063c.431-.431 3.791-1.464 7.322-1.464 3.876 0 6.374 1.55 7.322 5.082 1.637-3.187 4.048-5.082 8.441-5.082 3.188 0 5.599 1.119 6.03 1.895l-1.292 8.097c-.517-.689-3.101-1.723-6.202-1.723-4.307 0-6.03 3.704-6.546 7.666v18.348h-9.045v-23.258h.086Zm38.504-10.509v3.704c2.412-2.67 5.944-4.393 10.595-4.393 5.685 0 9.131 1.809 10.854 6.03 2.239-3.446 6.288-5.944 11.887-5.944 8.7 0 12.317 6.547 12.317 14.902v9.045c0 1.895.431 3.445 2.24 3.445 1.034 0 2.24-.43 3.446-1.033l.43 7.149c-1.636.776-4.651 1.465-7.408 1.465-4.996 0-7.752-2.584-7.752-8.873v-9.647c0-4.996-2.24-8.097-6.719-8.097-3.704 0-6.03 2.498-7.063 5.168v20.846h-9.045v-18.003c0-4.91-2.153-8.011-6.632-8.011-3.79 0-6.202 2.584-7.236 5.254v20.674h-9.045v-33.681h9.131Zm66.154-4.134v14.816h-4.909v-14.816h-6.03v-4.91h16.883v4.91h-5.944Zm28.34 2.842-5.944 7.236h-.861l-5.943-7.236v12.06h-4.91v-19.726h4.134l7.15 8.442 7.149-8.442h4.135v19.726h-4.91v-12.06Z"/></svg>