<svg xmlns="http://www.w3.org/2000/svg" width="40" height="40" fill="none" viewBox="0 0 14 14"><path stroke="#221F1F" stroke-linecap="round" stroke-linejoin="round" stroke-width=".264" d="M12.613 7h-1.576" class="ic-a-discover_svg__ic_a_discover"/><path fill="#FBDC00" stroke="#221F1F" stroke-linecap="round" stroke-linejoin="round" stroke-width=".264" d="M7 12.85a5.85 5.85 0 1 0 0-11.7 5.85 5.85 0 0 0 0 11.7Z" class="ic-a-discover_svg__ic_a_discover"/><path fill="#fff" stroke="#221F1F" stroke-linecap="round" stroke-linejoin="round" stroke-width=".264" d="M9.383 4.371 5.72 5.652a.11.11 0 0 0-.068.068L4.37 9.383a.21.21 0 0 0 .246.246L8.28 8.348a.109.109 0 0 0 .068-.068l1.28-3.663a.21.21 0 0 0-.245-.246Z" class="ic-a-discover_svg__ic_a_discover"/><path fill="#221F1F" d="M7 7.762a.762.762 0 1 0 0-1.524.762.762 0 0 0 0 1.524Z" class="ic-a-discover_svg__ic_a_discover"/><path stroke="#221F1F" stroke-linecap="round" stroke-linejoin="round" stroke-width=".264" d="M7 1.387v1.576m0 9.65v-1.576M1.387 7h1.576" class="ic-a-discover_svg__ic_a_discover"/></svg>