<svg xmlns="http://www.w3.org/2000/svg" width="1em" height="1em" fill="currentColor" style="margin-left:4px;font-size:10px" viewBox="0 0 14 14"><path fill-rule="evenodd" d="M1.989 4.052a.55.55 0 0 0-.286.449c0 .199-.084.109 2.518 2.716 1.488 1.492 2.501 2.489 2.557 2.519a.516.516 0 0 0 .444 0c.056-.03 1.069-1.027 2.557-2.519 2.606-2.612 2.518-2.516 2.518-2.719a.536.536 0 0 0-.285-.44c-.085-.044-.211-.045-5.017-.044-4.47 0-4.937.004-5.006.038" class="ic-m-arrow_rotate_down_svg__ic_m_arrow_rotate_down"/></svg>